<mxfile host="app.diagrams.net" agent="Mozilla/5.0 (Windows NT 10.0; Win64; x64) AppleWebKit/537.36 (KHTML, like Gecko) Chrome/134.0.0.0 Safari/537.36" version="26.1.0">
  <diagram name="第 1 页" id="6sPDzkarsZc_ihOpHrEi">
    <mxGraphModel dx="988" dy="523" grid="1" gridSize="10" guides="1" tooltips="1" connect="1" arrows="1" fold="1" page="1" pageScale="1" pageWidth="827" pageHeight="1169" math="0" shadow="0">
      <root>
        <mxCell id="0" />
        <mxCell id="1" parent="0" />
        <mxCell id="ErAJzIFRvoGB1Z3KaKbO-28" value="" style="rounded=0;whiteSpace=wrap;html=1;fillColor=#FFFFFF;strokeColor=#FFFFFF;" vertex="1" parent="1">
          <mxGeometry x="250" y="120" width="460" height="270" as="geometry" />
        </mxCell>
        <mxCell id="ErAJzIFRvoGB1Z3KaKbO-2" value="&lt;span lang=&quot;EN-US&quot; style=&quot;font-size: 12pt;&quot;&gt;LA_Mutaion&lt;/span&gt;" style="rounded=1;whiteSpace=wrap;html=1;fontFamily=Times New Roman;" vertex="1" parent="1">
          <mxGeometry x="287" y="192.5" width="120" height="40" as="geometry" />
        </mxCell>
        <mxCell id="ErAJzIFRvoGB1Z3KaKbO-3" value="&lt;span lang=&quot;EN-US&quot; style=&quot;font-size: 12pt;&quot;&gt;LB_Mutaion&lt;/span&gt;" style="rounded=1;whiteSpace=wrap;html=1;fontFamily=Times New Roman;" vertex="1" parent="1">
          <mxGeometry x="561" y="192.5" width="120" height="40" as="geometry" />
        </mxCell>
        <mxCell id="ErAJzIFRvoGB1Z3KaKbO-4" value="&lt;span style=&quot;font-size:12.0pt;line-height:&lt;br/&gt;150%;font-family:&amp;quot;Times New Roman&amp;quot;,serif;mso-fareast-font-family:宋体;mso-fareast-theme-font:&lt;br/&gt;minor-fareast;mso-bidi-theme-font:minor-bidi;mso-font-kerning:1.0pt;mso-ansi-language:&lt;br/&gt;EN-US;mso-fareast-language:ZH-CN;mso-bidi-language:AR-SA&quot; lang=&quot;EN-US&quot;&gt;AR_mutaion&lt;/span&gt;" style="rounded=1;whiteSpace=wrap;html=1;" vertex="1" parent="1">
          <mxGeometry x="427" y="270" width="120" height="35" as="geometry" />
        </mxCell>
        <mxCell id="ErAJzIFRvoGB1Z3KaKbO-5" value="Randon selection" style="rounded=1;whiteSpace=wrap;html=1;fontSize=20;fontFamily=Times New Roman;" vertex="1" parent="1">
          <mxGeometry x="427" y="122.5" width="120" height="50" as="geometry" />
        </mxCell>
        <mxCell id="ErAJzIFRvoGB1Z3KaKbO-9" value="&lt;span data-slate-fragment=&quot;JTVCJTdCJTIydHlwZSUyMiUzQSUyMnBhcmFncmFwaCUyMiUyQyUyMmNoaWxkcmVuJTIyJTNBJTVCJTdCJTIyaWQlMjIlM0ElMjJCYWo3bkRtcW5lJTIyJTJDJTIycGFyYUlkeCUyMiUzQTAlMkMlMjJzcmMlMjIlM0ElMjJJZiUyMG5vJTIwaW1wcm92ZW1lbnQlMjIlMkMlMjJkc3QlMjIlM0ElMjIlRTUlQTYlODIlRTYlOUUlOUMlRTYlQjIlQTElRTYlOUMlODklRTYlOTQlQjklRTUlOTYlODQlMjIlMkMlMjJtZXRhZGF0YSUyMiUzQSUyMiUyMiUyQyUyMm1hdGNoZXMlMjIlM0FudWxsJTJDJTIybWV0YURhdGElMjIlM0ElNUIlNUQlMkMlMjJ0ZXh0JTIyJTNBJTIySWYlMjBubyUyMGltcHJvdmVtZW50JTIyJTdEJTVEJTdEJTVE&quot; style=&quot;white-space: pre;&quot;&gt;Improved ?&lt;/span&gt;" style="rhombus;whiteSpace=wrap;html=1;fontFamily=Times New Roman;" vertex="1" parent="1">
          <mxGeometry x="307" y="262.5" width="80" height="50" as="geometry" />
        </mxCell>
        <mxCell id="ErAJzIFRvoGB1Z3KaKbO-12" value="" style="endArrow=classic;html=1;rounded=0;exitX=0.5;exitY=1;exitDx=0;exitDy=0;entryX=0.5;entryY=0;entryDx=0;entryDy=0;" edge="1" parent="1" source="ErAJzIFRvoGB1Z3KaKbO-5" target="ErAJzIFRvoGB1Z3KaKbO-4">
          <mxGeometry width="50" height="50" relative="1" as="geometry">
            <mxPoint x="457" y="222.5" as="sourcePoint" />
            <mxPoint x="507" y="172.5" as="targetPoint" />
          </mxGeometry>
        </mxCell>
        <mxCell id="ErAJzIFRvoGB1Z3KaKbO-13" value="" style="endArrow=classic;html=1;rounded=0;exitX=0.011;exitY=0.953;exitDx=0;exitDy=0;entryX=0.5;entryY=0;entryDx=0;entryDy=0;exitPerimeter=0;" edge="1" parent="1" source="ErAJzIFRvoGB1Z3KaKbO-5" target="ErAJzIFRvoGB1Z3KaKbO-2">
          <mxGeometry width="50" height="50" relative="1" as="geometry">
            <mxPoint x="357" y="142.5" as="sourcePoint" />
            <mxPoint x="407" y="92.5" as="targetPoint" />
          </mxGeometry>
        </mxCell>
        <mxCell id="ErAJzIFRvoGB1Z3KaKbO-14" value="" style="endArrow=classic;html=1;rounded=0;exitX=0.972;exitY=0.968;exitDx=0;exitDy=0;entryX=0.5;entryY=0;entryDx=0;entryDy=0;exitPerimeter=0;" edge="1" parent="1" source="ErAJzIFRvoGB1Z3KaKbO-5" target="ErAJzIFRvoGB1Z3KaKbO-3">
          <mxGeometry width="50" height="50" relative="1" as="geometry">
            <mxPoint x="437" y="122.5" as="sourcePoint" />
            <mxPoint x="367" y="172.5" as="targetPoint" />
          </mxGeometry>
        </mxCell>
        <mxCell id="ErAJzIFRvoGB1Z3KaKbO-15" value="" style="endArrow=classic;html=1;rounded=0;exitX=1;exitY=0.5;exitDx=0;exitDy=0;" edge="1" parent="1" source="ErAJzIFRvoGB1Z3KaKbO-9" target="ErAJzIFRvoGB1Z3KaKbO-4">
          <mxGeometry width="50" height="50" relative="1" as="geometry">
            <mxPoint x="337" y="392.5" as="sourcePoint" />
            <mxPoint x="387" y="342.5" as="targetPoint" />
          </mxGeometry>
        </mxCell>
        <mxCell id="ErAJzIFRvoGB1Z3KaKbO-16" value="NO" style="edgeLabel;html=1;align=center;verticalAlign=middle;resizable=0;points=[];fontFamily=Times New Roman;" vertex="1" connectable="0" parent="ErAJzIFRvoGB1Z3KaKbO-15">
          <mxGeometry x="-0.1929" relative="1" as="geometry">
            <mxPoint as="offset" />
          </mxGeometry>
        </mxCell>
        <mxCell id="ErAJzIFRvoGB1Z3KaKbO-17" value="&lt;span data-slate-fragment=&quot;JTVCJTdCJTIydHlwZSUyMiUzQSUyMnBhcmFncmFwaCUyMiUyQyUyMmNoaWxkcmVuJTIyJTNBJTVCJTdCJTIyaWQlMjIlM0ElMjJCYWo3bkRtcW5lJTIyJTJDJTIycGFyYUlkeCUyMiUzQTAlMkMlMjJzcmMlMjIlM0ElMjJJZiUyMG5vJTIwaW1wcm92ZW1lbnQlMjIlMkMlMjJkc3QlMjIlM0ElMjIlRTUlQTYlODIlRTYlOUUlOUMlRTYlQjIlQTElRTYlOUMlODklRTYlOTQlQjklRTUlOTYlODQlMjIlMkMlMjJtZXRhZGF0YSUyMiUzQSUyMiUyMiUyQyUyMm1hdGNoZXMlMjIlM0FudWxsJTJDJTIybWV0YURhdGElMjIlM0ElNUIlNUQlMkMlMjJ0ZXh0JTIyJTNBJTIySWYlMjBubyUyMGltcHJvdmVtZW50JTIyJTdEJTVEJTdEJTVE&quot; style=&quot;white-space: pre;&quot;&gt;Improved ?&lt;/span&gt;" style="rhombus;whiteSpace=wrap;html=1;fontFamily=Times New Roman;" vertex="1" parent="1">
          <mxGeometry x="581" y="262.5" width="80" height="50" as="geometry" />
        </mxCell>
        <mxCell id="ErAJzIFRvoGB1Z3KaKbO-18" value="" style="endArrow=classic;html=1;rounded=0;entryX=1;entryY=0.5;entryDx=0;entryDy=0;exitX=0;exitY=0.5;exitDx=0;exitDy=0;" edge="1" parent="1" source="ErAJzIFRvoGB1Z3KaKbO-17" target="ErAJzIFRvoGB1Z3KaKbO-4">
          <mxGeometry width="50" height="50" relative="1" as="geometry">
            <mxPoint x="527" y="382.5" as="sourcePoint" />
            <mxPoint x="577" y="332.5" as="targetPoint" />
          </mxGeometry>
        </mxCell>
        <mxCell id="ErAJzIFRvoGB1Z3KaKbO-19" value="No" style="edgeLabel;html=1;align=center;verticalAlign=middle;resizable=0;points=[];fontFamily=Times New Roman;" vertex="1" connectable="0" parent="ErAJzIFRvoGB1Z3KaKbO-18">
          <mxGeometry x="-0.0504" y="1" relative="1" as="geometry">
            <mxPoint x="5" y="-1" as="offset" />
          </mxGeometry>
        </mxCell>
        <mxCell id="ErAJzIFRvoGB1Z3KaKbO-20" value="" style="endArrow=classic;html=1;rounded=0;exitX=0.5;exitY=1;exitDx=0;exitDy=0;entryX=0.5;entryY=0;entryDx=0;entryDy=0;" edge="1" parent="1" source="ErAJzIFRvoGB1Z3KaKbO-2" target="ErAJzIFRvoGB1Z3KaKbO-9">
          <mxGeometry width="50" height="50" relative="1" as="geometry">
            <mxPoint x="267" y="392.5" as="sourcePoint" />
            <mxPoint x="317" y="342.5" as="targetPoint" />
          </mxGeometry>
        </mxCell>
        <mxCell id="ErAJzIFRvoGB1Z3KaKbO-21" value="" style="endArrow=classic;html=1;rounded=0;exitX=0.5;exitY=1;exitDx=0;exitDy=0;entryX=0.5;entryY=0;entryDx=0;entryDy=0;" edge="1" parent="1" source="ErAJzIFRvoGB1Z3KaKbO-3" target="ErAJzIFRvoGB1Z3KaKbO-17">
          <mxGeometry width="50" height="50" relative="1" as="geometry">
            <mxPoint x="557" y="412.5" as="sourcePoint" />
            <mxPoint x="607" y="362.5" as="targetPoint" />
          </mxGeometry>
        </mxCell>
        <mxCell id="ErAJzIFRvoGB1Z3KaKbO-23" value="" style="endArrow=classic;html=1;rounded=0;exitX=0.5;exitY=1;exitDx=0;exitDy=0;entryX=0;entryY=0;entryDx=0;entryDy=0;" edge="1" parent="1" source="ErAJzIFRvoGB1Z3KaKbO-9" target="ErAJzIFRvoGB1Z3KaKbO-26">
          <mxGeometry width="50" height="50" relative="1" as="geometry">
            <mxPoint x="397" y="392.5" as="sourcePoint" />
            <mxPoint x="387" y="372.5" as="targetPoint" />
          </mxGeometry>
        </mxCell>
        <mxCell id="ErAJzIFRvoGB1Z3KaKbO-31" value="Yes" style="edgeLabel;html=1;align=center;verticalAlign=middle;resizable=0;points=[];fontFamily=Times New Roman;" vertex="1" connectable="0" parent="ErAJzIFRvoGB1Z3KaKbO-23">
          <mxGeometry x="0.0202" y="-1" relative="1" as="geometry">
            <mxPoint as="offset" />
          </mxGeometry>
        </mxCell>
        <mxCell id="ErAJzIFRvoGB1Z3KaKbO-24" value="" style="endArrow=classic;html=1;rounded=0;exitX=0.5;exitY=1;exitDx=0;exitDy=0;entryX=1;entryY=0;entryDx=0;entryDy=0;" edge="1" parent="1" source="ErAJzIFRvoGB1Z3KaKbO-17" target="ErAJzIFRvoGB1Z3KaKbO-26">
          <mxGeometry width="50" height="50" relative="1" as="geometry">
            <mxPoint x="567" y="402.5" as="sourcePoint" />
            <mxPoint x="557" y="362.5" as="targetPoint" />
          </mxGeometry>
        </mxCell>
        <mxCell id="ErAJzIFRvoGB1Z3KaKbO-30" value="Yes" style="edgeLabel;html=1;align=center;verticalAlign=middle;resizable=0;points=[];fontFamily=Times New Roman;" vertex="1" connectable="0" parent="ErAJzIFRvoGB1Z3KaKbO-24">
          <mxGeometry x="-0.066" y="2" relative="1" as="geometry">
            <mxPoint as="offset" />
          </mxGeometry>
        </mxCell>
        <mxCell id="ErAJzIFRvoGB1Z3KaKbO-25" value="" style="endArrow=classic;html=1;rounded=0;exitX=0.5;exitY=1;exitDx=0;exitDy=0;entryX=0.5;entryY=0;entryDx=0;entryDy=0;" edge="1" parent="1" source="ErAJzIFRvoGB1Z3KaKbO-4" target="ErAJzIFRvoGB1Z3KaKbO-26">
          <mxGeometry width="50" height="50" relative="1" as="geometry">
            <mxPoint x="487" y="332.5" as="sourcePoint" />
            <mxPoint x="487" y="362.5" as="targetPoint" />
          </mxGeometry>
        </mxCell>
        <mxCell id="ErAJzIFRvoGB1Z3KaKbO-26" value="Return" style="rounded=1;whiteSpace=wrap;html=1;fontFamily=Times New Roman;fontSize=20;" vertex="1" parent="1">
          <mxGeometry x="427" y="352.5" width="120" height="35" as="geometry" />
        </mxCell>
        <mxCell id="ErAJzIFRvoGB1Z3KaKbO-29" value="Mutaion" style="text;html=1;align=center;verticalAlign=middle;whiteSpace=wrap;rounded=0;fontSize=20;fontFamily=Times New Roman;" vertex="1" parent="1">
          <mxGeometry x="250" y="122.5" width="80" height="30" as="geometry" />
        </mxCell>
      </root>
    </mxGraphModel>
  </diagram>
</mxfile>
